HIERARCHY
ROOT Hips
{
	OFFSET 0.000000 0.000000 0.000000
	CHANNELS 6 Xposition Yposition Zposition Zrotation Yrotation Xrotation 
	JOINT LHipJoint
	{
		OFFSET 0.000000 0.000000 0.000000
		CHANNELS 3 Zrotation Yrotation Xrotation
		JOINT LeftUpLeg
		{
			OFFSET 1.363060 -1.794630 0.839290
			CHANNELS 3 Zrotation Yrotation Xrotation
			JOINT LeftLeg
			{
				OFFSET 2.448110 -6.726130 0.000000
				CHANNELS 3 Zrotation Yrotation Xrotation
				JOINT LeftFoot
				{
					OFFSET 2.562200 -7.039590 0.000000
					CHANNELS 3 Zrotation Yrotation Xrotation
					JOINT LeftToeBase
					{
						OFFSET 0.157640 -0.433110 2.322550
						CHANNELS 3 Zrotation Yrotation Xrotation
						End Site
						{
							OFFSET 0.000000 0.000000 0.000000
						}
					}
				}
			}
		}
	}
	JOINT RHipJoint
	{
		OFFSET 0.000000 0.000000 0.000000
		CHANNELS 3 Zrotation Yrotation Xrotation
		JOINT RightUpLeg
		{
			OFFSET -1.305520 -1.794630 0.839290
			CHANNELS 3 Zrotation Yrotation Xrotation
			JOINT RightLeg
			{
				OFFSET -2.542530 -6.985550 0.000000
				CHANNELS 3 Zrotation Yrotation Xrotation
				JOINT RightFoot
				{
					OFFSET -2.568260 -7.056230 0.000000
					CHANNELS 3 Zrotation Yrotation Xrotation
					JOINT RightToeBase
					{
						OFFSET -0.164730 -0.452590 2.363150
						CHANNELS 3 Zrotation Yrotation Xrotation
						End Site
						{
							OFFSET 0.000000 0.000000 0.000000
						}
					}
				}
			}
		}
	}
	JOINT LowerBack
	{
		OFFSET 0.000000 0.000000 0.000000
		CHANNELS 3 Zrotation Yrotation Xrotation
		JOINT Spine
		{
			OFFSET 0.028270 2.035590 -0.193380
			CHANNELS 3 Zrotation Yrotation Xrotation
			JOINT Spine1
			{
				OFFSET 0.056720 2.048850 -0.042750
				CHANNELS 3 Zrotation Yrotation Xrotation
				JOINT Neck
				{
					OFFSET 0.000000 0.000000 0.000000
					CHANNELS 3 Zrotation Yrotation Xrotation
					JOINT Neck1
					{
						OFFSET -0.054170 1.746240 0.172020
						CHANNELS 3 Zrotation Yrotation Xrotation
						JOINT Head
						{
							OFFSET 0.104070 1.761360 -0.123970
							CHANNELS 3 Zrotation Yrotation Xrotation
							End Site
							{
								OFFSET 0.000000 0.000000 0.000000
							}
						}
					}
				}
				JOINT LeftShoulder
				{
					OFFSET 0.000000 0.000000 0.000000
					CHANNELS 3 Zrotation Yrotation Xrotation
					JOINT LeftArm
					{
						OFFSET 3.362410 1.200890 -0.311210
						CHANNELS 3 Zrotation Yrotation Xrotation
						JOINT LeftForeArm
						{
							OFFSET 4.983000 -0.000000 -0.000000
							CHANNELS 3 Zrotation Yrotation Xrotation
							JOINT LeftHand
							{
								OFFSET 3.483560 -0.000000 -0.000000
								CHANNELS 3 Zrotation Yrotation Xrotation
								JOINT LeftFingerBase
								{
									OFFSET 0.000000 0.000000 0.000000
									CHANNELS 3 Zrotation Yrotation Xrotation
									JOINT LeftHandIndex1
									{
										OFFSET 0.715260 -0.000000 -0.000000
										CHANNELS 3 Zrotation Yrotation Xrotation
										End Site
										{
											OFFSET 0.000000 0.000000 0.000000
										}
									}
								}
								JOINT LThumb
								{
									OFFSET 0.000000 0.000000 0.000000
									CHANNELS 3 Zrotation Yrotation Xrotation
									End Site
									{
										OFFSET 0.000000 0.000000 0.000000
									}
								}
							}
						}
					}
				}
				JOINT RightShoulder
				{
					OFFSET 0.000000 0.000000 0.000000
					CHANNELS 3 Zrotation Yrotation Xrotation
					JOINT RightArm
					{
						OFFSET -3.136600 1.374050 -0.404650
						CHANNELS 3 Zrotation Yrotation Xrotation
						JOINT RightForeArm
						{
							OFFSET -5.241900 -0.000000 -0.000000
							CHANNELS 3 Zrotation Yrotation Xrotation
							JOINT RightHand
							{
								OFFSET -3.444170 -0.000000 -0.000000
								CHANNELS 3 Zrotation Yrotation Xrotation
								JOINT RightFingerBase
								{
									OFFSET 0.000000 0.000000 0.000000
									CHANNELS 3 Zrotation Yrotation Xrotation
									JOINT RightHandIndex1
									{
										OFFSET -0.622530 -0.000000 -0.000000
										CHANNELS 3 Zrotation Yrotation Xrotation
										End Site
										{
											OFFSET 0.000000 0.000000 0.000000
										}
									}
								}
								JOINT RThumb
								{
									OFFSET 0.000000 0.000000 0.000000
									CHANNELS 3 Zrotation Yrotation Xrotation
									End Site
									{
										OFFSET 0.000000 0.000000 0.000000
									}
								}
							}
						}
					}
				}
			}
		}
	}
}
MOTION
Frames: 11
Frame Time: 0.008333
2.807290 13.620905 30.000547 -159.324865 42.561215 -110.957027 22.310720 11.534912 -5.918667 -53.342428 12.238189 -133.782818 7.067333 15.749245 39.081677 4.586852 7.119069 63.672751 0.418600 4.152700 11.506600 -14.123168 -15.346699 -14.243673 24.468388 -14.906179 -17.353411 3.204698 15.327766 -5.208947 26.782911 -43.719273 24.361094 -5.093400 13.488200 -41.224600 -22.444017 5.298308 31.614505 -18.523220 3.420289 -25.215806 5.540539 20.313012 12.942115 11.483220 11.225669 -57.006376 7.574042 8.074851 -6.536248 0.389100 5.982700 5.238100 18.518026 -15.226753 -10.499600 5.352276 -25.978879 32.219983 8.871981 -13.936798 -5.742208 -15.411930 -8.789336 -32.496627 30.744599 5.330549 3.991500 -7.125000 0.000000 0.000000 17.957000 34.833700 -4.675600 -14.391339 22.284204 42.956477 -58.759544 37.207002 -123.090154 3.179500 14.317637 -1.553000 17.725178 3.708692 20.100704 -35.161457 -5.289361 15.642400 7.125000 0.000000 0.000000 -23.494800 -48.777900 2.306300 
2.813394 13.588253 29.969030 -158.881871 41.615356 -111.144492 22.535895 11.460532 -5.801045 -53.213247 11.936570 -134.053171 7.284468 15.753098 39.583923 4.624724 6.936735 63.596480 0.425200 4.184800 11.597300 -13.497264 -15.604421 -14.564754 24.202779 -13.045618 -16.174386 2.926191 14.391886 -4.660265 26.253859 -43.549822 23.522139 -5.113800 13.510900 -41.312200 -22.296859 5.020406 31.958274 -17.996166 4.278012 -25.440154 5.866825 22.599030 10.395103 10.068747 10.348678 -55.936477 6.563878 7.970433 -6.609719 0.381200 5.974700 5.285500 17.901100 -19.273753 -9.476929 5.269441 -25.350368 33.181195 8.761883 -13.949330 -5.760364 -15.570109 -9.048775 -32.668827 30.684754 5.125181 3.870900 -7.125000 0.000000 0.000000 18.100700 34.652300 -4.800300 -9.688102 25.125844 35.328054 -48.801063 44.369331 -115.819242 4.447651 14.298268 -1.854461 18.646508 4.397548 20.192135 -34.522476 -4.396247 15.564000 7.125000 0.000000 0.000000 -23.525900 -48.653600 2.234200 
2.818363 13.556026 29.938365 -161.626726 41.493409 -110.548352 21.647913 10.019265 -7.922145 -53.448721 12.028987 -135.179172 7.092035 16.124142 39.976529 4.718837 6.781938 63.423180 0.432100 4.218200 11.691400 -14.380969 -16.715408 -15.654275 24.010078 -11.374577 -16.073478 3.061408 13.358629 -4.804445 25.315431 -43.762638 22.541819 -5.139900 13.539600 -41.423500 -17.894643 11.137225 31.002743 -19.600052 -3.150594 -23.277298 5.825426 31.653868 0.331118 4.110045 5.103055 -48.558171 3.536698 7.471236 -7.105946 0.374900 5.969800 5.332300 17.379297 -33.621588 -0.465279 1.120421 -23.755856 34.340151 8.537136 -14.773843 -5.641489 -14.999769 -9.385731 -32.575606 31.151310 4.401993 3.748300 -7.125000 0.000000 0.000000 18.239000 34.472100 -4.924300 -0.893499 38.738149 3.432617 8.144564 32.638759 46.310024 -11.490838 6.048380 -6.143877 20.342330 -5.480296 12.718982 -30.002246 -16.027528 15.513200 7.125000 0.000000 0.000000 -23.554100 -48.569300 2.186000 
2.822480 13.524367 29.908693 -163.556122 42.019006 -109.834305 20.876324 9.232784 -9.162879 -53.529240 11.976133 -136.194798 6.981144 16.391942 40.329533 4.718437 6.626518 63.276883 0.439500 4.253900 11.792000 -15.613417 -17.067705 -16.296662 24.169879 -11.983251 -16.753477 3.403861 13.122254 -5.193068 25.291545 -43.728544 22.566284 -5.168400 13.571000 -41.545300 -15.783909 13.792871 30.536954 -20.441400 -12.183800 -22.988938 6.411556 33.853989 1.346621 4.806137 5.704112 -49.068918 4.417950 7.615171 -7.591675 0.371100 5.968500 5.379100 17.796924 -31.520501 1.053531 0.715408 -23.813247 34.883948 9.283462 -14.784433 -5.730671 -14.949302 -9.205093 -32.952026 31.501422 4.507642 3.637600 -7.125000 0.000000 0.000000 18.370400 34.308100 -5.040100 -0.484163 41.791668 2.161328 8.869530 30.587969 49.812889 -11.843150 6.233901 -6.805106 20.463223 -5.455753 12.296534 -29.877905 -16.246807 15.480100 7.125000 0.000000 0.000000 -23.575700 -48.513100 2.154000 
2.825887 13.493702 29.880300 -164.213601 42.053905 -109.667525 20.643516 8.982340 -9.398958 -53.421301 11.704549 -136.695811 7.066214 16.475028 40.712310 4.671630 6.469482 63.174172 0.444100 4.275700 11.853700 -15.996403 -17.298722 -16.421890 24.246540 -12.483194 -17.000779 3.469629 13.231200 -5.267764 25.419000 -43.652987 22.811392 -5.199700 13.605200 -41.678500 -15.387013 14.050169 30.570850 -20.465671 -16.224464 -23.369352 7.492798 35.056899 1.604836 5.889224 6.751395 -48.982501 5.235509 7.761104 -7.548333 0.371000 5.969400 5.424100 17.105595 -29.972087 0.912201 0.646561 -23.557055 35.490431 9.404012 -14.784900 -5.816353 -14.987763 -9.217643 -33.326674 31.659768 4.509007 3.521700 -7.125000 0.000000 0.000000 18.491900 34.141000 -5.155700 0.033044 43.677616 1.908844 9.162374 31.923979 50.240456 -12.531576 5.970346 -7.049536 20.512860 -5.417337 12.174341 -29.854789 -16.280184 15.458600 7.125000 0.000000 0.000000 -23.597100 -48.473600 2.132100 
2.829153 13.464172 29.852900 -164.347107 41.962230 -109.777253 20.539758 8.949589 -9.248730 -53.314870 11.462462 -136.993303 7.212119 16.516391 41.141798 4.628609 6.325696 63.072385 0.447400 4.291200 11.897500 -15.942713 -17.513099 -16.475579 24.168786 -12.578224 -16.957688 3.440312 13.206890 -5.168216 25.416291 -43.557394 22.953400 -5.229900 13.638100 -41.806600 -15.174391 13.676425 30.620297 -20.366766 -18.207342 -23.620251 8.279561 35.922446 2.585959 6.573943 7.341295 -49.560214 5.735867 7.856926 -7.480202 0.374700 5.974400 5.464700 16.993101 -28.551245 0.852835 0.830352 -23.295863 36.149309 9.558168 -14.739806 -5.901875 -15.082269 -9.301179 -33.738182 31.733663 4.501008 3.411200 -7.125000 0.000000 0.000000 18.614600 33.981400 -5.269300 0.207805 44.125524 2.959021 7.801348 34.005713 49.996608 -13.074434 5.292304 -7.307072 20.739178 -5.510137 11.998169 -29.627957 -16.408745 15.441600 7.125000 0.000000 0.000000 -23.623700 -48.437700 2.112800 
2.832560 13.436062 29.826636 -164.399640 41.887898 -109.927937 20.472229 8.978900 -9.043656 -53.222463 11.258371 -137.236310 7.358929 16.557996 41.578763 4.584744 6.191336 62.964765 0.449800 4.302700 11.929900 -15.793039 -17.727369 -16.524191 24.022629 -12.564440 -16.922784 3.401489 13.118859 -5.021058 25.340213 -43.438517 23.061864 -5.258200 13.668800 -41.926400 -14.981761 13.438760 30.613349 -20.291964 -19.261634 -23.733514 8.735978 36.316169 3.640614 6.965969 7.664991 -50.262840 6.017913 7.923010 -7.439186 0.380300 5.981200 5.499800 17.071576 -27.455651 0.877283 1.100556 -23.175087 36.796024 9.759167 -14.677043 -5.987446 -15.175372 -9.405492 -34.180903 31.807268 4.495078 3.310300 -7.125000 0.000000 0.000000 18.746400 33.833500 -5.381200 0.182766 44.008237 4.154647 6.175421 35.655761 49.582681 -13.391515 4.675134 -7.534772 20.981374 -5.629878 11.856568 -29.383665 -16.532863 15.423100 7.125000 0.000000 0.000000 -23.653100 -48.398900 2.092100 
2.836251 13.409088 29.801507 -164.470452 41.849317 -110.081592 20.409361 9.019279 -8.857261 -53.144855 11.085589 -137.455657 7.497674 16.604663 42.011218 4.540566 6.062745 62.853170 0.451200 4.309600 11.949300 -15.644265 -17.954759 -16.589889 23.850696 -12.533596 -16.910983 3.369245 13.025469 -4.863463 25.228403 -43.300996 23.172984 -5.285800 13.698600 -42.043300 -14.799059 13.377121 30.577808 -20.232452 -19.948909 -23.788983 9.006502 36.448215 4.588195 7.200728 7.865634 -50.901843 6.187262 7.976901 -7.413009 0.386500 5.990300 5.531400 17.192944 -26.628215 0.981857 1.349943 -23.107711 37.405675 9.960273 -14.618037 -6.070531 -15.255237 -9.519171 -34.631776 31.894349 4.481190 3.212100 -7.125000 0.000000 0.000000 18.884500 33.689700 -5.494500 0.114526 43.778431 5.148673 4.766644 36.800811 49.162296 -13.570983 4.208924 -7.723162 21.188866 -5.741561 11.761233 -29.189112 -16.625477 15.403800 7.125000 0.000000 0.000000 -23.692500 -48.354400 2.068700 
2.840652 13.383534 29.777230 -164.573101 41.838876 -110.240353 20.343028 9.057476 -8.695785 -53.080737 10.936026 -137.656642 7.629105 16.654028 42.435603 4.497009 5.936339 62.740215 0.451700 4.311700 11.955200 -15.514799 -18.198705 -16.674890 23.670117 -12.512390 -16.905295 3.343112 12.948406 -4.704638 25.103828 -43.150973 23.297838 -5.312700 13.727500 -42.156600 -14.634873 13.420946 30.536072 -20.173723 -20.477438 -23.824215 9.182255 36.455959 5.403433 7.346848 7.996589 -51.429984 6.298935 8.015982 -7.392396 0.394300 5.998200 5.557100 17.312581 -25.997402 1.151776 1.538136 -23.038061 37.962976 10.136552 -14.573899 -6.148107 -15.322467 -9.631808 -35.058114 31.987954 4.453612 3.110700 -7.125000 0.000000 0.000000 19.018800 33.543700 -5.608700 0.064578 43.592468 5.888257 3.678827 37.559288 48.783145 -13.671223 3.884194 -7.875635 21.348551 -5.839626 11.713365 -29.049458 -16.689197 15.384700 7.125000 0.000000 0.000000 -23.734500 -48.309000 2.044900 
2.845763 13.359115 29.753806 -164.692286 41.843043 -110.400772 20.271371 9.089924 -8.555514 -53.020245 10.805796 -137.840294 7.756235 16.704562 42.848954 4.455361 5.816792 62.629618 0.452300 4.314400 11.963000 -15.400344 -18.457118 -16.773635 23.489924 -12.506099 -16.897871 3.322039 12.884334 -4.549966 24.978051 -42.995563 23.440680 -5.338500 13.755200 -42.265400 -14.490843 13.511098 30.494632 -20.107248 -20.930890 -23.853091 9.309458 36.413508 6.098789 7.446293 8.093609 -51.853150 6.376297 8.048361 -7.373072 0.399400 6.005600 5.578500 17.419401 -25.507286 1.368581 1.654928 -22.942001 38.456850 10.275353 -14.547602 -6.218272 -15.384262 -9.732912 -35.427942 32.084112 4.411781 3.002200 -7.125000 0.000000 0.000000 19.145300 33.390200 -5.725200 0.047932 43.494269 6.399340 2.892512 38.048727 48.454258 -13.725601 3.672577 -7.998459 21.465327 -5.922447 11.704766 -28.956825 -16.734646 15.372900 7.125000 0.000000 0.000000 -23.778400 -48.272700 2.026800 
2.851300 13.335548 29.731375 -164.817755 41.858869 -110.561081 20.208028 9.113951 -8.448251 -52.993618 10.699855 -137.997323 7.858704 16.743929 43.178287 4.430213 5.719849 62.558916 0.452000 4.313300 11.959900 -15.307461 -18.716254 -16.881611 23.317478 -12.495955 -16.872028 3.304534 12.830783 -4.402442 24.850027 -42.841718 23.587483 -5.362800 13.781000 -42.367300 -14.364161 13.628431 30.453326 -20.026878 -21.372573 -23.881973 9.415056 36.358307 6.718477 7.519527 8.163111 -52.191541 6.440566 8.064088 -7.351470 0.405000 6.008100 5.592400 17.518320 -25.101989 1.621471 1.709961 -22.813130 38.882948 10.372675 -14.535585 -6.277965 -15.445484 -9.802166 -35.713450 32.165125 4.347681 2.865400 -7.125000 0.000000 0.000000 19.239700 33.205900 -5.847400 0.055185 43.477815 6.750719 2.312871 38.366403 48.162568 -13.753950 3.538937 -8.101969 21.553232 -5.991139 11.721918 -28.894593 -16.770780 15.371600 7.125000 0.000000 0.000000 -23.823500 -48.250400 2.017300 
